<svg width="25" height="14" viewBox="0 0 25 14" fill="none" xmlns="http://www.w3.org/2000/svg">
<path d="M17.4996 11.7217C17.2099 11.9707 16.8307 12.0953 16.4484 12.0953C16.0692 12.0953 15.687 11.9681 15.3972 11.7217C14.8178 11.2237 14.8178 10.4158 15.3972 9.92046L18.4214 7.32172H1.48268C0.665698 7.32172 0 6.74951 0 6.0476C0 5.34553 0.665878 4.77347 1.48268 4.77347H18.4244L15.4002 2.17473C14.8208 1.67676 14.8208 0.868811 15.4002 0.373476C15.9797 -0.124492 16.9199 -0.124492 17.4963 0.373476L23.0513 5.14421C23.1192 5.20258 23.1839 5.27142 23.2363 5.33764C23.2424 5.35093 23.2518 5.36139 23.2579 5.37206C23.301 5.43043 23.341 5.49122 23.3719 5.55744C23.3811 5.58119 23.3904 5.60776 23.3965 5.6289C23.4181 5.68445 23.4427 5.73759 23.4551 5.79576C23.4736 5.87788 23.4827 5.96262 23.4827 6.04736C23.4827 6.13209 23.4736 6.21684 23.4551 6.29896C23.4396 6.35733 23.4181 6.41027 23.3965 6.46582C23.3874 6.48957 23.3811 6.51614 23.3719 6.53727C23.341 6.60088 23.301 6.66448 23.2579 6.72265C23.2518 6.73594 23.2424 6.7464 23.2363 6.75707C23.1778 6.82852 23.1162 6.89475 23.0482 6.95312L17.4996 11.7217ZM24.9721 7.69792C24.9597 7.63955 24.9351 7.58661 24.9136 7.53106C24.9075 7.50993 24.8981 7.48597 24.889 7.45961C24.858 7.396 24.818 7.33501 24.7749 7.27423C24.7688 7.26638 24.7594 7.25309 24.7533 7.23981C24.7009 7.17358 24.6362 7.10475 24.5683 7.04638L24.2971 6.81591C24.291 6.8292 24.2847 6.8451 24.2786 6.85838C24.2324 6.95379 24.1769 7.04376 24.112 7.13132C24.0905 7.16312 24.0689 7.19492 24.0441 7.22673C23.9546 7.33804 23.853 7.4439 23.742 7.53931L18.1936 12.3151C17.7404 12.7046 17.1363 12.9244 16.4983 12.935C16.5477 13.1892 16.6864 13.433 16.9115 13.6264C17.2012 13.8754 17.5835 14 17.9627 14C18.3449 14 18.7241 13.8754 19.0139 13.6264L24.5655 8.85285C24.6334 8.79448 24.6981 8.72564 24.7536 8.65681C24.7597 8.64896 24.7691 8.63567 24.7751 8.62239C24.8182 8.56402 24.8583 8.50323 24.8892 8.43701C24.8983 8.41587 24.9047 8.39192 24.9138 8.36555C24.9354 8.31 24.9569 8.25686 24.9724 8.19869C24.9909 8.11657 25 8.03183 25 7.94709C24.9998 7.86477 24.9876 7.78266 24.9721 7.69792ZM1.53233 8.16147C1.64944 8.76553 2.25985 9.22644 2.99648 9.22644H14.8216L16.0609 8.16147H1.53233Z" fill="#4BAE7F"/>
</svg>
