<svg width="51" height="72" viewBox="0 0 51 72" fill="none" xmlns="http://www.w3.org/2000/svg">
<path d="M8.29947 49.9758C7.39246 49.1484 6.93859 48.0655 6.93859 46.9738C6.93859 45.8909 7.402 44.7992 8.29947 43.9718C10.1135 42.3169 13.0567 42.3169 14.8612 43.9718L24.328 52.6082L24.328 4.23428C24.328 1.90112 26.4125 -9.96527e-07 28.9695 -8.92894e-07C31.527 -7.89238e-07 33.6109 1.90163 33.6109 4.23428L33.6109 52.6167L43.0778 43.9804C44.8918 42.3255 47.835 42.3255 49.6395 43.9804C51.4535 45.6353 51.4535 48.3203 49.6395 49.9664L32.2604 65.8304C32.0477 66.0244 31.7969 66.209 31.5557 66.3588C31.5073 66.3762 31.4692 66.403 31.4303 66.4203C31.2177 66.5434 30.9963 66.6578 30.755 66.7461C30.6685 66.7722 30.5717 66.7989 30.4947 66.8163C30.2924 66.8779 30.0988 66.9481 29.8869 66.9836C29.5877 67.0364 29.279 67.0625 28.9703 67.0625C28.6617 67.0625 28.3529 67.0364 28.0538 66.9836C27.8412 66.9394 27.6483 66.8779 27.4459 66.8163C27.3594 66.7903 27.2626 66.7722 27.1856 66.7461C26.9539 66.6578 26.7222 66.5434 26.5103 66.4203C26.4619 66.403 26.4238 66.3762 26.385 66.3588C26.1247 66.1916 25.8834 66.0157 25.6708 65.8217L8.29947 49.9758ZM22.9576 71.3159C23.1702 71.2805 23.363 71.2102 23.5654 71.1487C23.6424 71.1313 23.7297 71.1045 23.8257 71.0784C24.0574 70.9902 24.2796 70.8758 24.501 70.7527C24.5296 70.7353 24.578 70.7086 24.6264 70.6912C24.8677 70.5413 25.1184 70.3567 25.331 70.1627L26.1706 69.3881C26.1222 69.3707 26.0643 69.3527 26.0159 69.3353C25.6683 69.2035 25.3406 69.045 25.0216 68.8597C24.9058 68.7982 24.7899 68.7366 24.6741 68.6657C24.2686 68.4102 23.8829 68.1199 23.5354 67.8028L6.13785 51.9577C4.71904 50.6634 3.91839 48.9382 3.87954 47.1162C2.95346 47.2574 2.06552 47.6533 1.36088 48.2962C0.453875 49.1236 -2.74951e-06 50.2153 -2.80056e-06 51.2982C-2.85202e-06 52.3899 0.453875 53.4728 1.36088 54.3002L18.7503 70.1547C18.9629 70.3487 19.2137 70.5333 19.4645 70.6919C19.4931 70.7093 19.5415 70.736 19.5899 70.7534C19.8025 70.8765 20.0239 70.9909 20.2652 71.0792C20.3422 71.1053 20.4294 71.1233 20.5255 71.1494C20.7278 71.2109 20.9214 71.2725 21.1333 71.3166C21.4325 71.3695 21.7412 71.3956 22.0499 71.3956C22.3498 71.3949 22.6489 71.3601 22.9576 71.3159ZM21.2689 4.37606C19.0684 4.71051 17.3894 6.45373 17.3894 8.55743L17.3894 42.3279L21.2689 45.8671L21.2689 4.37606Z" fill="#E40375"/>
</svg>
