<svg width="17" height="15" viewBox="0 0 17 15" fill="none" xmlns="http://www.w3.org/2000/svg">
<path d="M14.3078 8.10518C14.3254 8.44715 14.2031 8.75094 13.9891 8.96747C13.7767 9.18227 13.4708 9.30793 13.1305 9.29607C12.4462 9.26863 11.8624 8.69152 11.829 8.00947L11.6447 4.44023L2.15963 14.0351C1.70215 14.4978 0.915929 14.4662 0.408763 13.9648C-0.0985141 13.4634 -0.138989 12.6776 0.318391 12.2149L9.80512 2.61836L6.23399 2.47512C5.5497 2.44767 4.96591 1.87057 4.93249 1.18851C4.89717 0.50458 5.42365 -0.0279915 6.10623 0.00119109L12.6639 0.262277C12.7441 0.265495 12.8301 0.27805 12.9073 0.295629C12.9203 0.301668 12.9331 0.303836 12.9442 0.308006C13.0105 0.325286 13.0769 0.346018 13.142 0.375807C13.1643 0.387598 13.1888 0.40127 13.2074 0.412915C13.2596 0.440389 13.3118 0.464415 13.3608 0.498933C13.4305 0.547112 13.4968 0.602463 13.5581 0.662989C13.6193 0.723516 13.6754 0.789221 13.7244 0.858359C13.7579 0.908809 13.7841 0.958829 13.8122 1.01071C13.8242 1.03285 13.8399 1.05541 13.85 1.07568C13.8787 1.13863 13.9022 1.20675 13.9201 1.27271C13.9263 1.28565 13.9286 1.29843 13.9329 1.3095C13.9517 1.39371 13.9651 1.47591 13.9692 1.55607L14.3078 8.10518ZM15.5847 0.998308C15.5356 0.963646 15.4835 0.939763 15.4313 0.91229C15.4126 0.900643 15.3901 0.888841 15.3659 0.875182C15.3027 0.847263 15.2362 0.826389 15.1681 0.80738C15.159 0.805223 15.1442 0.80104 15.1312 0.795001C15.0539 0.777419 14.968 0.76487 14.8878 0.761653L14.5694 0.75067C14.5756 0.763609 14.5835 0.77855 14.5897 0.791489C14.6328 0.885775 14.6667 0.981484 14.6937 1.08077C14.7046 1.1157 14.7155 1.15062 14.7246 1.1874C14.7549 1.31759 14.7745 1.45079 14.7812 1.58183L15.1251 8.13593C15.1527 8.67086 14.9733 9.17003 14.6237 9.53904C14.8351 9.69263 15.0889 9.78819 15.3547 9.79885C15.6968 9.81257 16.0009 9.68504 16.2132 9.47024C16.4273 9.25371 16.5496 8.94992 16.5319 8.60796L16.1915 2.05357C16.1874 1.9734 16.1738 1.88761 16.1552 1.807C16.1529 1.79794 16.1486 1.78315 16.1424 1.77021C16.1243 1.7041 16.1028 1.638 16.0723 1.57318C16.0621 1.55291 16.0484 1.53222 16.0344 1.50821C16.0064 1.45633 15.98 1.40616 15.9467 1.35586C15.8977 1.28671 15.8416 1.22101 15.7803 1.16049C15.7207 1.10182 15.6546 1.05008 15.5847 0.998308ZM2.7942 14.6068C3.29624 14.9719 3.97108 14.9554 4.38357 14.5381L11.0052 7.83981L10.9297 6.37712L2.7942 14.6068Z" fill="#FFFBF9"/>
</svg>
